<?xml version="1.0" encoding="utf-8"?>
<svg xmlns="http://www.w3.org/2000/svg" viewBox="994.6453 366.036 105.2293 105.3493" width="105.229px" height="105.349px"><defs><clipPath id="clipPath368" clipPathUnits="userSpaceOnUse"><path id="path366" d="M 667.73,238.555 H 903.742 V 405.434 H 667.73 Z"/></clipPath><clipPath id="clipPath378" clipPathUnits="userSpaceOnUse"><path id="path376" d="M 0,0 H 1009 V 1297 H 0 Z"/></clipPath><linearGradient id="linearGradient396" spreadMethod="pad" gradientTransform="matrix(0.280338,0,0,-0.280338,824.90764,313.98873)" gradientUnits="userSpaceOnUse" y2="0" x2="0" y1="0" x1="-281.52802"><stop id="stop392" offset="0" style="stop-opacity:1;stop-color:#1d15ff"/><stop id="stop394" offset="1" style="stop-opacity:1;stop-color:#ff0086"/></linearGradient><clipPath id="clipPath408" clipPathUnits="userSpaceOnUse"><path id="path406" d="M 0,0 H 1009 V 1297 H 0 Z"/></clipPath><clipPath id="clipPath422" clipPathUnits="userSpaceOnUse"><path id="path420" d="M 0,0 H 1009 V 1297 H 0 Z"/></clipPath><clipPath id="clipPath438" clipPathUnits="userSpaceOnUse"><path id="path436" d="M 0,0 H 1009 V 1297 H 0 Z"/></clipPath><clipPath id="clipPath454" clipPathUnits="userSpaceOnUse"><path id="path452" d="M 0,0 H 1009 V 1297 H 0 Z"/></clipPath><clipPath id="clipPath470" clipPathUnits="userSpaceOnUse"><path id="path468" d="M 0,0 H 1009 V 1297 H 0 Z"/></clipPath><clipPath id="clipPath494" clipPathUnits="userSpaceOnUse"><path id="path492" d="M 0,0 H 1009 V 1297 H 0 Z"/></clipPath><clipPath id="clipPath542" clipPathUnits="userSpaceOnUse"><path id="path540" d="M 0,0 H 1009 V 1297 H 0 Z"/></clipPath><clipPath id="clipPath558" clipPathUnits="userSpaceOnUse"><path id="path556" d="M 0,0 H 1009 V 1297 H 0 Z"/></clipPath><clipPath id="clipPath574" clipPathUnits="userSpaceOnUse"><path id="path572" d="M 0,0 H 1009 V 1297 H 0 Z"/></clipPath><clipPath id="clipPath588" clipPathUnits="userSpaceOnUse"><path id="path586" d="M 0,0 H 1009 V 1297 H 0 Z"/></clipPath><clipPath id="clipPath602" clipPathUnits="userSpaceOnUse"><path id="path600" d="M 0,0 H 1009 V 1297 H 0 Z"/></clipPath><clipPath id="clipPath616" clipPathUnits="userSpaceOnUse"><path id="path614" d="M 0,0 H 1009 V 1297 H 0 Z"/></clipPath><clipPath id="clipPath630" clipPathUnits="userSpaceOnUse"><path id="path628" d="M 0,0 H 1009 V 1297 H 0 Z"/></clipPath><clipPath id="clipPath644" clipPathUnits="userSpaceOnUse"><path id="path642" d="M 0,0 H 1009 V 1297 H 0 Z"/></clipPath><clipPath id="clipPath658" clipPathUnits="userSpaceOnUse"><path id="path656" d="M 0,0 H 1009 V 1297 H 0 Z"/></clipPath><clipPath id="clipPath672" clipPathUnits="userSpaceOnUse"><path id="path670" d="M 0,0 H 1009 V 1297 H 0 Z"/></clipPath><clipPath id="clipPath686" clipPathUnits="userSpaceOnUse"><path id="path684" d="M 0,0 H 1009 V 1297 H 0 Z"/></clipPath><clipPath id="clipPath700" clipPathUnits="userSpaceOnUse"><path id="path698" d="M 0,0 H 1009 V 1297 H 0 Z"/></clipPath><clipPath id="clipPath714" clipPathUnits="userSpaceOnUse"><path id="path712" d="M 0,0 H 1009 V 1297 H 0 Z"/></clipPath><clipPath id="clipPath732" clipPathUnits="userSpaceOnUse"><path id="path730" d="M 0,0 H 1009 V 1297 H 0 Z"/></clipPath><linearGradient id="linearGradient752" spreadMethod="pad" gradientTransform="matrix(0.794658,0,0,0.794658,569.35568,247.75068)" gradientUnits="userSpaceOnUse" y2="83.354179" x2="321.58743" y1="83.354179" x1="222.27061"><stop id="stop748" offset="0" style="stop-opacity:1;stop-color:#1d15ff"/><stop id="stop750" offset="1" style="stop-opacity:1;stop-color:#ff0086"/></linearGradient><linearGradient id="linearGradient770" spreadMethod="pad" gradientTransform="matrix(0.794658,0,0,0.794658,569.35568,247.75068)" gradientUnits="userSpaceOnUse" y2="83.354179" x2="321.58743" y1="83.354179" x1="222.27061"><stop id="stop766" offset="0" style="stop-opacity:1;stop-color:#1d15ff"/><stop id="stop768" offset="1" style="stop-opacity:1;stop-color:#ff0086"/></linearGradient><linearGradient id="linearGradient788" spreadMethod="pad" gradientTransform="matrix(0.794658,0,0,0.794658,569.35568,247.75068)" gradientUnits="userSpaceOnUse" y2="83.354179" x2="321.58743" y1="83.354179" x1="222.27061"><stop id="stop784" offset="0" style="stop-opacity:1;stop-color:#1d15ff"/><stop id="stop786" offset="1" style="stop-opacity:1;stop-color:#ff0086"/></linearGradient><linearGradient id="linearGradient806" spreadMethod="pad" gradientTransform="matrix(0.794658,0,0,0.794658,569.35568,247.75068)" gradientUnits="userSpaceOnUse" y2="83.354179" x2="321.58743" y1="83.354179" x1="222.27061"><stop id="stop802" offset="0" style="stop-opacity:1;stop-color:#1d15ff"/><stop id="stop804" offset="1" style="stop-opacity:1;stop-color:#ff0086"/></linearGradient><linearGradient id="linearGradient824" spreadMethod="pad" gradientTransform="matrix(0.794658,0,0,0.794658,569.35568,247.75068)" gradientUnits="userSpaceOnUse" y2="83.354179" x2="321.58743" y1="83.354179" x1="222.27061"><stop id="stop820" offset="0" style="stop-opacity:1;stop-color:#1d15ff"/><stop id="stop822" offset="1" style="stop-opacity:1;stop-color:#ff0086"/></linearGradient><linearGradient id="linearGradient842" spreadMethod="pad" gradientTransform="matrix(0.794658,0,0,0.794658,569.35568,247.75068)" gradientUnits="userSpaceOnUse" y2="83.354179" x2="321.58743" y1="83.354179" x1="222.27061"><stop id="stop838" offset="0" style="stop-opacity:1;stop-color:#1d15ff"/><stop id="stop840" offset="1" style="stop-opacity:1;stop-color:#ff0086"/></linearGradient><linearGradient id="linearGradient860" spreadMethod="pad" gradientTransform="matrix(0.794658,0,0,0.794658,569.35568,247.75068)" gradientUnits="userSpaceOnUse" y2="83.354179" x2="321.58743" y1="83.354179" x1="222.27061"><stop id="stop856" offset="0" style="stop-opacity:1;stop-color:#1d15ff"/><stop id="stop858" offset="1" style="stop-opacity:1;stop-color:#ff0086"/></linearGradient><linearGradient id="linearGradient878" spreadMethod="pad" gradientTransform="matrix(0.794658,0,0,0.794658,569.35568,247.75068)" gradientUnits="userSpaceOnUse" y2="83.354179" x2="321.58743" y1="83.354179" x1="222.27061"><stop id="stop874" offset="0" style="stop-opacity:1;stop-color:#1d15ff"/><stop id="stop876" offset="1" style="stop-opacity:1;stop-color:#ff0086"/></linearGradient><linearGradient id="linearGradient896" spreadMethod="pad" gradientTransform="matrix(0.794658,0,0,0.794658,569.35568,247.75068)" gradientUnits="userSpaceOnUse" y2="83.354179" x2="321.58743" y1="83.354179" x1="222.27061"><stop id="stop892" offset="0" style="stop-opacity:1;stop-color:#1d15ff"/><stop id="stop894" offset="1" style="stop-opacity:1;stop-color:#ff0086"/></linearGradient><linearGradient id="linearGradient914" spreadMethod="pad" gradientTransform="matrix(0.794658,0,0,0.794658,569.35568,247.75068)" gradientUnits="userSpaceOnUse" y2="83.354179" x2="321.58743" y1="83.354179" x1="222.27061"><stop id="stop910" offset="0" style="stop-opacity:1;stop-color:#1d15ff"/><stop id="stop912" offset="1" style="stop-opacity:1;stop-color:#ff0086"/></linearGradient><linearGradient id="linearGradient932" spreadMethod="pad" gradientTransform="matrix(0.794658,0,0,0.794658,569.35568,247.75068)" gradientUnits="userSpaceOnUse" y2="83.354179" x2="321.58743" y1="83.354179" x1="222.27061"><stop id="stop928" offset="0" style="stop-opacity:1;stop-color:#1d15ff"/><stop id="stop930" offset="1" style="stop-opacity:1;stop-color:#ff0086"/></linearGradient><linearGradient id="linearGradient950" spreadMethod="pad" gradientTransform="matrix(0.794658,0,0,0.794658,569.35568,247.75068)" gradientUnits="userSpaceOnUse" y2="83.354179" x2="321.58743" y1="83.354179" x1="222.27061"><stop id="stop946" offset="0" style="stop-opacity:1;stop-color:#1d15ff"/><stop id="stop948" offset="1" style="stop-opacity:1;stop-color:#ff0086"/></linearGradient><linearGradient id="linearGradient968" spreadMethod="pad" gradientTransform="matrix(0.794658,0,0,0.794658,569.35568,247.75068)" gradientUnits="userSpaceOnUse" y2="83.354179" x2="321.58743" y1="83.354179" x1="222.27061"><stop id="stop964" offset="0" style="stop-opacity:1;stop-color:#1d15ff"/><stop id="stop966" offset="1" style="stop-opacity:1;stop-color:#ff0086"/></linearGradient></defs><g id="g362" transform="matrix(1.3333332538604736, 0, 0, 1.3333332538604736, 0, 0.00004320000152802095)"><g clip-path="url(#clipPath368)" id="g364"><g id="g370"><g id="g372"><g clip-path="url(#clipPath378)" id="g374"><g id="g380"><g id="g382"><g id="g384"><g id="g390"><path id="path398" style="fill:url(#linearGradient396);stroke:none" d="m 824.906,313.988 c 0,21.793 -17.668,39.461 -39.461,39.461 -21.793,0 -39.461,-17.668 -39.461,-39.461 0,-21.793 17.668,-39.461 39.461,-39.461 21.793,0 39.461,17.668 39.461,39.461"/></g></g></g></g></g></g></g><g id="g400"><g id="g402"><g clip-path="url(#clipPath408)" id="g404"><g id="g410"><path id="path412" style="fill:#ffffff;fill-opacity:1;fill-rule:nonzero;stroke:none" d="m 798.223,281.781 c 0,2.246 -1.825,4.067 -4.067,4.067 -2.246,0 -4.07,-1.821 -4.07,-4.067 0,-2.246 1.824,-4.07 4.07,-4.07 2.242,0 4.067,1.824 4.067,4.07"/></g></g></g></g><g id="g414"><g id="g416"><g clip-path="url(#clipPath422)" id="g418"><g id="g424"><g transform="scale(1,-1)" id="g426"><path id="path428" style="fill:none;stroke:#ffffff;stroke-width:0.80541003;stroke-linecap:butt;stroke-linejoin:miter;stroke-miterlimit:4;stroke-dasharray:none;stroke-opacity:1" d="m 756.375,-307.957 c 0,-1.082 -0.875,-1.961 -1.957,-1.961 -1.082,0 -1.961,0.879 -1.961,1.961 0,1.082 0.879,1.957 1.961,1.957 1.082,0 1.957,-0.875 1.957,-1.957 z"/></g></g></g></g></g><g id="g430"><g id="g432"><g clip-path="url(#clipPath438)" id="g434"><g id="g440"><g transform="scale(1,-1)" id="g442"><path id="path444" style="fill:none;stroke:#ffffff;stroke-width:0.947541;stroke-linecap:butt;stroke-linejoin:miter;stroke-miterlimit:4;stroke-dasharray:none;stroke-opacity:1" d="m 818.438,-302.289 c 0,-1.274 -1.036,-2.305 -2.309,-2.305 -1.274,0 -2.305,1.031 -2.305,2.305 0,1.273 1.031,2.305 2.305,2.305 1.273,0 2.309,-1.032 2.309,-2.305 z"/></g></g></g></g></g><g id="g446"><g id="g448"><g clip-path="url(#clipPath454)" id="g450"><g id="g456"><g transform="scale(1,-1)" id="g458"><path id="path460" style="fill:none;stroke:#ffffff;stroke-width:1.114622;stroke-linecap:butt;stroke-linejoin:miter;stroke-miterlimit:4;stroke-dasharray:none;stroke-opacity:1" d="m 780.223,-295.633 c 0,-0.89 -0.719,-1.613 -1.61,-1.613 -0.89,0 -1.617,0.723 -1.617,1.613 0,0.895 0.727,1.617 1.617,1.617 0.891,0 1.61,-0.722 1.61,-1.617 z m 38.215,-17.629 c 0,-0.89 -0.727,-1.613 -1.618,-1.613 -0.89,0 -1.613,0.723 -1.613,1.613 0,0.891 0.723,1.614 1.613,1.614 0.891,0 1.618,-0.723 1.618,-1.614 z"/></g></g></g></g></g><g id="g462"><g id="g464"><g clip-path="url(#clipPath470)" id="g466"><g id="g472"><g transform="scale(1,-1)" id="g474"><path id="path476" style="fill:none;stroke:#ffffff;stroke-width:0.557311;stroke-linecap:butt;stroke-linejoin:miter;stroke-miterlimit:4;stroke-dasharray:none;stroke-opacity:1" d="m 817.105,-320.625 c 0,-0.711 -0.574,-1.289 -1.289,-1.289 -0.711,0 -1.293,0.578 -1.293,1.289 0,0.715 0.582,1.293 1.293,1.293 0.715,0 1.289,-0.578 1.289,-1.293 z m -2.234,0.039 h -3.461 l -2.687,-2.687 h -2.571 m 8.371,0.117 c 0,-0.711 -0.574,-1.289 -1.289,-1.289 -0.714,0 -1.293,0.578 -1.293,1.289 0,0.715 0.579,1.293 1.293,1.293 0.715,0 1.289,-0.578 1.289,-1.293 z m -2.304,0 h -1.66 l -1.836,-1.84 h -2.571 m -4.019,-3.723 h 1.988 l 2.567,2.563 h 2.753"/></g></g></g></g></g><g id="g478"><path id="path480" style="fill:none;stroke:#ffffff;stroke-width:0.83596402;stroke-linecap:butt;stroke-linejoin:miter;stroke-miterlimit:4;stroke-dasharray:none;stroke-opacity:1" d="m 806.152,321.398 4.258,-4.253 h 2.363 l 2.832,-2.832 m -5.195,2.832 v -9.579 l 3.867,-3.871"/></g><g id="g482"><path id="path484" style="fill:none;stroke:#ffffff;stroke-width:1.11461902;stroke-linecap:butt;stroke-linejoin:miter;stroke-miterlimit:4;stroke-dasharray:none;stroke-opacity:1" d="m 805.914,312.57 v 12.106 l -8.851,8.851 v 3.403 l -6.918,6.918 v 9.691"/></g><g id="g486"><g id="g488"><g clip-path="url(#clipPath494)" id="g490"><g id="g496"><g transform="scale(1,-1)" id="g498"><path id="path500" style="fill:none;stroke:#ffffff;stroke-width:0.557311;stroke-linecap:butt;stroke-linejoin:miter;stroke-miterlimit:4;stroke-dasharray:none;stroke-opacity:1" d="m 812.023,-326.156 c 0,-0.711 -0.578,-1.289 -1.293,-1.289 -0.71,0 -1.289,0.578 -1.289,1.289 0,0.715 0.579,1.293 1.289,1.293 0.715,0 1.293,-0.578 1.293,-1.293 z m -9.394,-7.188 c 0,-0.715 -0.578,-1.293 -1.289,-1.293 -0.715,0 -1.289,0.578 -1.289,1.293 0,0.711 0.574,1.289 1.289,1.289 0.711,0 1.289,-0.578 1.289,-1.289 z m -6.926,-4.945 h 4.516 l 1.988,1.988 v 2.199 m 5.172,13.926 v 6.067 l 2.031,2.035 -0.035,3.199 -2.52,2.68 v 0.586 l 0.899,0.898 m -2.449,-3.035 v 4.414 l 4.968,4.965"/></g></g></g></g></g><g id="g502"><path id="path504" style="fill:none;stroke:#ffffff;stroke-width:1.11461902;stroke-linecap:butt;stroke-linejoin:miter;stroke-miterlimit:4;stroke-dasharray:none;stroke-opacity:1" d="m 785.285,341.098 4.567,-4.571 v -3.875 m 1.796,-4.031 7.29,-7.289 v -0.707 m 0.171,-4.652 v -9.668 l 6.536,-6.532 v -5.543 l 2.144,-2.148 m -22.504,22.231 -6.512,-6.516 v -10.27 m 0.692,30.082 -5.746,-5.746 v -6.988 m -1.973,-2.625 -2.984,-2.984 h -3.078 l -3.414,-3.414 v -5.258 l -3.141,-3.145"/></g><g id="g506"><path id="path508" style="fill:none;stroke:#ffffff;stroke-width:1.67193604;stroke-linecap:butt;stroke-linejoin:miter;stroke-miterlimit:4;stroke-dasharray:none;stroke-opacity:1" d="m 785.492,353.539 v -41.566 l 3.707,-3.703 v -14.946 l 4.875,-4.875 v -5.07"/></g><g id="g510"><path id="path512" style="fill:none;stroke:#ffffff;stroke-width:1.11461902;stroke-linecap:butt;stroke-linejoin:miter;stroke-miterlimit:4;stroke-dasharray:none;stroke-opacity:1" d="m 789.199,302.637 -3.48,-3.477 v -12.769"/></g><g id="g514"><path id="path516" style="fill:none;stroke:#ffffff;stroke-width:1.67193604;stroke-linecap:butt;stroke-linejoin:miter;stroke-miterlimit:4;stroke-dasharray:none;stroke-opacity:1" d="m 785.285,335.145 -5.754,-5.754 v -9.313"/></g><g id="g518"><path id="path520" style="fill:none;stroke:#ffffff;stroke-width:1.11461902;stroke-linecap:butt;stroke-linejoin:miter;stroke-miterlimit:4;stroke-dasharray:none;stroke-opacity:1" d="m 785.719,293.535 -6.254,-6.258 v -5.496"/></g><g id="g522"><path id="path524" style="fill:none;stroke:#ffffff;stroke-width:0.557311;stroke-linecap:butt;stroke-linejoin:miter;stroke-miterlimit:4;stroke-dasharray:none;stroke-opacity:1" d="m 778.613,304.852 -6.293,-6.297 v -15.176 m 1.207,16.387 v -7.489 l 1.782,-1.781 m -3.262,6.102 -1.672,-1.672 v -2.555 l -4.367,-4.367 m 8.043,22.258 v -1.914 l -6.969,-6.969 v -1.613 m 15.898,11.882 v -6.273 m 15.958,5.762 -4.7,-4.699 v -6.672 m 4.7,8.535 -2.172,-2.172 v -2.102 l 5.148,-5.148 v -5.555 m -7.676,11.27 6.61,-6.606 v -7.492 m -6.61,11.793 5.004,-5 v -3.273 l -1.707,-1.703 m -11.508,33.175 2.469,-2.465 v -3.296 m -2.469,7.718 4.649,-4.648 v -5.652 m -10.684,25.25 v -6.504 l -2.746,-2.743 m -11.238,-9.074 v -4.742 l -3.887,-3.891 h -3.543 l -4.152,-4.148 v -1.375 m 12.656,15.336 v -6.566 l -4.937,-4.938 h -2.547 l -1.653,-1.656 m 10.293,14.062 v -9.011 l -5.195,-5.196"/></g><g id="g526"><path id="path528" style="fill:none;stroke:#ffffff;stroke-width:1.67193604;stroke-linecap:butt;stroke-linejoin:miter;stroke-miterlimit:4;stroke-dasharray:none;stroke-opacity:1" d="m 780.988,353.359 v -9.57 l -11.175,-11.176 v -4.55 l -4.403,-4.407 h -7.769 l -3.493,-3.488"/></g><g id="g530"><path id="path532" style="fill:none;stroke:#ffffff;stroke-width:1.66801095;stroke-linecap:butt;stroke-linejoin:miter;stroke-miterlimit:4;stroke-dasharray:none;stroke-opacity:1" d="m 774.184,336.875 h -6.891 l -4.789,-4.785"/></g><g id="g534"><g id="g536"><g clip-path="url(#clipPath542)" id="g538"><g id="g544"><g transform="scale(1,-1)" id="g546"><path id="path548" style="fill:none;stroke:#ffffff;stroke-width:0.557311;stroke-linecap:butt;stroke-linejoin:miter;stroke-miterlimit:4;stroke-dasharray:none;stroke-opacity:1" d="m 777.648,-332.09 c 0,-0.715 -0.578,-1.293 -1.289,-1.293 -0.714,0 -1.293,0.578 -1.293,1.293 0,0.715 0.579,1.293 1.293,1.293 0.711,0 1.289,-0.578 1.289,-1.293 z m -14.257,20.953 c 0,-0.711 -0.578,-1.289 -1.293,-1.289 -0.711,0 -1.293,0.578 -1.293,1.289 0,0.715 0.582,1.293 1.293,1.293 0.715,0 1.293,-0.578 1.293,-1.293 z m -3.743,0.176 c 0,-0.711 -0.578,-1.289 -1.289,-1.289 -0.714,0 -1.289,0.578 -1.289,1.289 0,0.715 0.575,1.293 1.289,1.293 0.711,0 1.289,-0.578 1.289,-1.293 z m 30.137,-7.644 c 0,-0.715 -0.578,-1.293 -1.289,-1.293 -0.715,0 -1.293,0.578 -1.293,1.293 0,0.714 0.578,1.289 1.293,1.289 0.711,0 1.289,-0.575 1.289,-1.289 z m 2.184,2.632 c 0,-0.715 -0.578,-1.293 -1.293,-1.293 -0.711,0 -1.289,0.578 -1.289,1.293 0,0.711 0.578,1.289 1.289,1.289 0.715,0 1.293,-0.578 1.293,-1.289 z m 18.195,12.278 c 0,-0.715 -0.578,-1.289 -1.293,-1.289 -0.711,0 -1.289,0.574 -1.289,1.289 0,0.715 0.578,1.289 1.289,1.289 0.715,0 1.293,-0.574 1.293,-1.289 z m 2.336,5.757 c 0,-0.71 -0.582,-1.289 -1.293,-1.289 -0.711,0 -1.289,0.579 -1.289,1.289 0,0.715 0.578,1.293 1.289,1.293 0.711,0 1.293,-0.578 1.293,-1.293 z m -8.207,5.211 c 0,-0.711 -0.578,-1.289 -1.293,-1.289 -0.711,0 -1.289,0.578 -1.289,1.289 0,0.715 0.578,1.293 1.289,1.293 0.715,0 1.293,-0.578 1.293,-1.293 z m -8.762,-5.863 c 0,-0.715 -0.578,-1.293 -1.293,-1.293 -0.711,0 -1.289,0.578 -1.289,1.293 0,0.711 0.578,1.289 1.289,1.289 0.715,0 1.293,-0.578 1.293,-1.289 z m 2.5,7.156 c 0,-0.714 -0.578,-1.293 -1.289,-1.293 -0.719,0 -1.293,0.579 -1.293,1.293 0,0.711 0.574,1.289 1.293,1.289 0.711,0 1.289,-0.578 1.289,-1.289 z m -13.761,-12.593 c 0,-0.715 -0.575,-1.293 -1.29,-1.293 -0.714,0 -1.292,0.578 -1.292,1.293 0,0.711 0.578,1.289 1.292,1.289 0.715,0 1.29,-0.578 1.29,-1.289 z m 17.871,14.73 c 0,-0.711 -0.578,-1.293 -1.293,-1.293 -0.711,0 -1.289,0.582 -1.289,1.293 0,0.715 0.578,1.293 1.289,1.293 0.715,0 1.293,-0.578 1.293,-1.293 z m -33.77,-9.07 c 0,-0.711 -0.578,-1.289 -1.289,-1.289 -0.715,0 -1.293,0.578 -1.293,1.289 0,0.715 0.578,1.293 1.293,1.293 0.711,0 1.289,-0.578 1.289,-1.293 z m 9.277,8.637 c 0,-0.711 -0.578,-1.29 -1.289,-1.29 -0.714,0 -1.293,0.579 -1.293,1.29 0,0.714 0.579,1.292 1.293,1.292 0.711,0 1.289,-0.578 1.289,-1.292 z m -11.128,2.582 c 0,-0.711 -0.579,-1.29 -1.29,-1.29 -0.71,0 -1.292,0.579 -1.292,1.29 0,0.714 0.582,1.293 1.292,1.293 0.711,0 1.29,-0.579 1.29,-1.293 z m 7.089,5.058 c 0,-0.711 -0.578,-1.289 -1.289,-1.289 -0.715,0 -1.293,0.578 -1.293,1.289 0,0.715 0.578,1.293 1.293,1.293 0.711,0 1.289,-0.578 1.289,-1.293 z"/></g></g></g></g></g><g id="g550"><g id="g552"><g clip-path="url(#clipPath558)" id="g554"><g id="g560"><g transform="scale(1,-1)" id="g562"><path id="path564" style="fill:none;stroke:#ffffff;stroke-width:0.64085197;stroke-linecap:butt;stroke-linejoin:miter;stroke-miterlimit:4;stroke-dasharray:none;stroke-opacity:1" d="m 780.949,-280.488 c 0,-0.821 -0.668,-1.485 -1.488,-1.485 -0.816,0 -1.481,0.664 -1.481,1.485 0,0.82 0.665,1.484 1.481,1.484 0.82,0 1.488,-0.664 1.488,-1.484 z"/></g></g></g></g></g><g id="g566"><g id="g568"><g clip-path="url(#clipPath574)" id="g570"><g id="g576"><path id="path578" style="fill:#ffffff;fill-opacity:1;fill-rule:nonzero;stroke:none" d="m 756.789,318.059 c 0,2.246 -1.824,4.066 -4.066,4.066 -2.246,0 -4.071,-1.82 -4.071,-4.066 0,-2.246 1.825,-4.071 4.071,-4.071 2.242,0 4.066,1.825 4.066,4.071"/></g></g></g></g><g id="g580"><g id="g582"><g clip-path="url(#clipPath588)" id="g584"><g id="g590"><path id="path592" style="fill:#ffffff;fill-opacity:1;fill-rule:nonzero;stroke:none" d="m 783.602,319.055 c 0,2.246 -1.825,4.066 -4.071,4.066 -2.246,0 -4.07,-1.82 -4.07,-4.066 0,-2.246 1.824,-4.071 4.07,-4.071 2.246,0 4.071,1.825 4.071,4.071"/></g></g></g></g><g id="g594"><g id="g596"><g clip-path="url(#clipPath602)" id="g598"><g id="g604"><path id="path606" style="fill:#ffffff;fill-opacity:1;fill-rule:nonzero;stroke:none" d="m 760.926,295.582 c 0,1.801 -1.457,3.258 -3.254,3.258 -1.797,0 -3.254,-1.457 -3.254,-3.258 0,-1.797 1.457,-3.254 3.254,-3.254 1.797,0 3.254,1.457 3.254,3.254"/></g></g></g></g><g id="g608"><g id="g610"><g clip-path="url(#clipPath616)" id="g612"><g id="g618"><path id="path620" style="fill:#ffffff;fill-opacity:1;fill-rule:nonzero;stroke:none" d="m 813.195,290.672 c 0,1.797 -1.457,3.254 -3.254,3.254 -1.796,0 -3.257,-1.457 -3.257,-3.254 0,-1.797 1.461,-3.254 3.257,-3.254 1.797,0 3.254,1.457 3.254,3.254"/></g></g></g></g><g id="g622"><g id="g624"><g clip-path="url(#clipPath630)" id="g626"><g id="g632"><path id="path634" style="fill:#ffffff;fill-opacity:1;fill-rule:nonzero;stroke:none" d="m 802.266,318.059 c 0,1.796 -1.457,3.254 -3.254,3.254 -1.797,0 -3.258,-1.458 -3.258,-3.254 0,-1.797 1.461,-3.258 3.258,-3.258 1.797,0 3.254,1.461 3.254,3.258"/></g></g></g></g><g id="g636"><g id="g638"><g clip-path="url(#clipPath644)" id="g640"><g id="g646"><path id="path648" style="fill:#ffffff;fill-opacity:1;fill-rule:nonzero;stroke:none" d="m 819.863,302.34 c 0,1.797 -1.461,3.254 -3.258,3.254 -1.796,0 -3.253,-1.457 -3.253,-3.254 0,-1.797 1.457,-3.254 3.253,-3.254 1.797,0 3.258,1.457 3.258,3.254"/></g></g></g></g><g id="g650"><g id="g652"><g clip-path="url(#clipPath658)" id="g654"><g id="g660"><path id="path662" style="fill:#ffffff;fill-opacity:1;fill-rule:nonzero;stroke:none" d="m 776.93,312.547 c 0,1.797 -1.461,3.254 -3.254,3.254 -1.797,0 -3.258,-1.457 -3.258,-3.254 0,-1.797 1.461,-3.254 3.258,-3.254 1.793,0 3.254,1.457 3.254,3.254"/></g></g></g></g><g id="g664"><g id="g666"><g clip-path="url(#clipPath672)" id="g668"><g id="g674"><path id="path676" style="fill:#ffffff;fill-opacity:1;fill-rule:nonzero;stroke:none" d="m 765.809,330.496 c 0,2.246 -1.821,4.067 -4.067,4.067 -2.246,0 -4.07,-1.821 -4.07,-4.067 0,-2.246 1.824,-4.07 4.07,-4.07 2.246,0 4.067,1.824 4.067,4.07"/></g></g></g></g><g id="g678"><g id="g680"><g clip-path="url(#clipPath686)" id="g682"><g id="g688"><path id="path690" style="fill:#ffffff;fill-opacity:1;fill-rule:nonzero;stroke:none" d="m 795.105,330.496 c 0,2.246 -1.824,4.067 -4.066,4.067 -2.246,0 -4.07,-1.821 -4.07,-4.067 0,-2.25 1.824,-4.07 4.07,-4.07 2.242,0 4.066,1.82 4.066,4.07"/></g></g></g></g><g id="g692"><g id="g694"><g clip-path="url(#clipPath700)" id="g696"><g id="g702"><path id="path704" style="fill:#ffffff;fill-opacity:1;fill-rule:nonzero;stroke:none" d="m 789.02,285.035 c 0,1.797 -1.457,3.254 -3.254,3.254 -1.797,0 -3.254,-1.457 -3.254,-3.254 0,-1.797 1.457,-3.254 3.254,-3.254 1.797,0 3.254,1.457 3.254,3.254"/></g></g></g></g><g id="g706"><g id="g708"><g clip-path="url(#clipPath714)" id="g710"><g id="g716"><path id="path718" style="fill:#ffffff;fill-opacity:1;fill-rule:nonzero;stroke:none" d="m 808.777,310.344 c 0,1.797 -1.461,3.254 -3.254,3.254 -1.796,0 -3.257,-1.457 -3.257,-3.254 0,-1.797 1.461,-3.254 3.257,-3.254 1.793,0 3.254,1.457 3.254,3.254"/></g></g></g></g><g id="g720"><path id="path722" style="fill:none;stroke:#ffffff;stroke-width:1.47177005;stroke-linecap:butt;stroke-linejoin:miter;stroke-miterlimit:4;stroke-dasharray:none;stroke-opacity:1" d="m 794.031,340.055 h 8.918 l 4.996,-4.996"/></g><g id="g724"><g id="g726"><g clip-path="url(#clipPath732)" id="g728"><g id="g734"><path id="path736" style="fill:#ffffff;fill-opacity:1;fill-rule:nonzero;stroke:none" d="m 813.039,333.66 c 0,2.246 -1.82,4.07 -4.066,4.07 -2.246,0 -4.071,-1.824 -4.071,-4.07 0,-2.246 1.825,-4.07 4.071,-4.07 2.246,0 4.066,1.824 4.066,4.07"/></g></g></g></g><g id="g738"><g id="g740"><g id="g746"><path id="path754" style="fill:url(#linearGradient752);stroke:none" d="m 793.168,279.742 c -0.035,0.004 -0.066,0.008 -0.086,0.012 -0.016,0.004 -0.031,0.004 -0.043,0.004 -0.094,0 -0.164,-0.024 -0.223,-0.074 -0.054,-0.051 -0.082,-0.118 -0.082,-0.2 0,-0.07 0.024,-0.132 0.075,-0.183 0.046,-0.051 0.117,-0.09 0.211,-0.117 l 1.281,-0.344 c 0.031,-0.008 0.062,-0.016 0.09,-0.02 0.031,-0.004 0.062,-0.007 0.097,-0.007 0.051,0 0.09,0.027 0.121,0.074 0.036,0.051 0.051,0.121 0.051,0.207 v 4.668 h 0.692 c 0.253,0 0.418,0.019 0.484,0.062 0.07,0.039 0.105,0.117 0.105,0.231 0,0.105 -0.027,0.183 -0.086,0.238 -0.058,0.051 -0.144,0.074 -0.257,0.074 h -2.578 c -0.118,0 -0.204,-0.023 -0.262,-0.074 -0.059,-0.055 -0.086,-0.133 -0.086,-0.238 0,-0.114 0.035,-0.192 0.101,-0.231 0.071,-0.043 0.235,-0.062 0.493,-0.062 h 0.714 v -4.215 z"/></g></g></g><g id="g756"><g id="g758"><g id="g764"><path id="path772" style="fill:url(#linearGradient770);stroke:none" d="m 751.734,316.02 c -0.035,0.003 -0.066,0.011 -0.086,0.015 -0.015,0 -0.031,0 -0.043,0 -0.093,0 -0.164,-0.023 -0.222,-0.074 -0.055,-0.051 -0.082,-0.117 -0.082,-0.199 0,-0.071 0.023,-0.129 0.074,-0.18 0.047,-0.055 0.117,-0.094 0.207,-0.121 l 1.281,-0.344 c 0.035,-0.008 0.067,-0.015 0.094,-0.019 0.031,-0.004 0.063,-0.008 0.094,-0.008 0.054,0 0.094,0.027 0.125,0.078 0.035,0.051 0.051,0.117 0.051,0.207 v 4.664 h 0.691 c 0.254,0 0.418,0.02 0.484,0.063 0.071,0.039 0.106,0.117 0.106,0.23 0,0.106 -0.028,0.188 -0.086,0.238 -0.059,0.051 -0.145,0.075 -0.258,0.075 h -2.582 c -0.113,0 -0.199,-0.024 -0.258,-0.075 -0.058,-0.05 -0.086,-0.132 -0.086,-0.238 0,-0.113 0.035,-0.191 0.102,-0.23 0.07,-0.043 0.234,-0.063 0.492,-0.063 h 0.715 v -4.211 z"/></g></g></g><g id="g774"><g id="g776"><g id="g782"><path id="path790" style="fill:url(#linearGradient788);stroke:none" d="m 779.578,316.68 c -0.332,0 -0.59,0.195 -0.773,0.586 -0.184,0.39 -0.274,0.941 -0.274,1.656 0,0.715 0.09,1.269 0.274,1.664 0.183,0.391 0.441,0.586 0.773,0.586 0.332,0 0.59,-0.195 0.774,-0.586 0.183,-0.395 0.277,-0.949 0.277,-1.664 0,-0.715 -0.094,-1.266 -0.277,-1.656 -0.184,-0.391 -0.442,-0.586 -0.774,-0.586 z m 0,5.105 c -0.543,0 -0.973,-0.258 -1.289,-0.765 -0.316,-0.512 -0.476,-1.211 -0.476,-2.098 0,-0.883 0.16,-1.582 0.476,-2.094 0.316,-0.508 0.746,-0.765 1.289,-0.765 0.539,0 0.969,0.257 1.285,0.769 0.321,0.512 0.481,1.207 0.481,2.09 0,0.883 -0.16,1.582 -0.481,2.094 -0.316,0.511 -0.746,0.769 -1.285,0.769 z"/></g></g></g><g id="g792"><g id="g794"><g id="g800"><path id="path808" style="fill:url(#linearGradient806);stroke:none" d="m 757.711,293.688 c -0.266,0 -0.473,0.156 -0.621,0.468 -0.149,0.313 -0.223,0.75 -0.223,1.324 0,0.571 0.074,1.016 0.223,1.329 0.148,0.316 0.355,0.472 0.621,0.472 0.262,0 0.469,-0.156 0.617,-0.472 0.149,-0.313 0.223,-0.758 0.223,-1.329 0,-0.574 -0.074,-1.011 -0.223,-1.324 -0.148,-0.312 -0.355,-0.468 -0.617,-0.468 z m 0,4.082 c -0.434,0 -0.781,-0.204 -1.031,-0.61 -0.258,-0.41 -0.383,-0.972 -0.383,-1.68 0,-0.71 0.125,-1.269 0.383,-1.675 0.25,-0.407 0.597,-0.614 1.031,-0.614 0.43,0 0.773,0.207 1.027,0.618 0.254,0.406 0.383,0.964 0.383,1.671 0,0.704 -0.129,1.262 -0.383,1.676 -0.254,0.41 -0.597,0.614 -1.027,0.614 z"/></g></g></g><g id="g810"><g id="g812"><g id="g818"><path id="path826" style="fill:url(#linearGradient824);stroke:none" d="m 809.152,289.043 c -0.031,0.004 -0.05,0.008 -0.066,0.012 -0.016,0 -0.031,0.004 -0.039,0.004 -0.07,0 -0.129,-0.02 -0.176,-0.063 -0.043,-0.039 -0.066,-0.094 -0.066,-0.16 0,-0.055 0.019,-0.106 0.058,-0.145 0.039,-0.039 0.094,-0.07 0.168,-0.093 l 1.028,-0.278 c 0.023,-0.004 0.046,-0.011 0.07,-0.011 0.023,-0.004 0.051,-0.008 0.078,-0.008 0.043,0 0.074,0.023 0.102,0.062 0.023,0.039 0.039,0.094 0.039,0.16 v 3.735 h 0.55 c 0.204,0 0.332,0.015 0.387,0.047 0.059,0.035 0.086,0.097 0.086,0.187 0,0.086 -0.023,0.149 -0.07,0.188 -0.043,0.043 -0.113,0.062 -0.207,0.062 h -2.063 c -0.09,0 -0.16,-0.019 -0.207,-0.062 -0.043,-0.039 -0.066,-0.102 -0.066,-0.188 0,-0.09 0.027,-0.152 0.082,-0.187 0.055,-0.032 0.183,-0.047 0.39,-0.047 h 0.571 v -3.371 z"/></g></g></g><g id="g828"><g id="g830"><g id="g836"><path id="path844" style="fill:url(#linearGradient842);stroke:none" d="m 799.047,316.16 c -0.266,0 -0.473,0.156 -0.621,0.469 -0.145,0.312 -0.219,0.754 -0.219,1.324 0,0.57 0.074,1.016 0.219,1.332 0.148,0.313 0.355,0.469 0.621,0.469 0.266,0 0.473,-0.156 0.617,-0.469 0.149,-0.316 0.227,-0.762 0.227,-1.332 0,-0.57 -0.078,-1.012 -0.227,-1.324 -0.144,-0.313 -0.351,-0.469 -0.617,-0.469 z m 0,4.082 c -0.434,0 -0.777,-0.203 -1.031,-0.609 -0.254,-0.41 -0.379,-0.969 -0.379,-1.68 0,-0.711 0.125,-1.265 0.379,-1.676 0.254,-0.406 0.597,-0.609 1.031,-0.609 0.433,0 0.773,0.203 1.027,0.613 0.258,0.407 0.387,0.965 0.387,1.672 0,0.707 -0.129,1.266 -0.387,1.676 -0.254,0.41 -0.594,0.613 -1.027,0.613 z"/></g></g></g><g id="g846"><g id="g848"><g id="g854"><path id="path862" style="fill:url(#linearGradient860);stroke:none" d="m 816.645,300.441 c -0.266,0 -0.473,0.157 -0.622,0.473 -0.148,0.309 -0.222,0.75 -0.222,1.324 0,0.571 0.074,1.012 0.222,1.328 0.149,0.313 0.356,0.469 0.622,0.469 0.261,0 0.468,-0.156 0.617,-0.469 0.148,-0.316 0.222,-0.757 0.222,-1.328 0,-0.574 -0.074,-1.015 -0.222,-1.324 -0.149,-0.316 -0.356,-0.473 -0.617,-0.473 z m 0,4.086 c -0.434,0 -0.778,-0.203 -1.032,-0.613 -0.258,-0.406 -0.383,-0.969 -0.383,-1.676 0,-0.711 0.125,-1.269 0.383,-1.675 0.254,-0.411 0.598,-0.614 1.032,-0.614 0.429,0 0.773,0.207 1.027,0.614 0.258,0.41 0.383,0.968 0.383,1.675 0,0.703 -0.125,1.262 -0.383,1.672 -0.254,0.41 -0.598,0.617 -1.027,0.617 z"/></g></g></g><g id="g864"><g id="g866"><g id="g872"><path id="path880" style="fill:url(#linearGradient878);stroke:none" d="m 772.887,310.918 c -0.032,0.008 -0.055,0.008 -0.071,0.012 -0.015,0 -0.027,0.004 -0.039,0.004 -0.07,0 -0.129,-0.02 -0.172,-0.059 -0.046,-0.043 -0.066,-0.098 -0.066,-0.164 0,-0.055 0.016,-0.106 0.055,-0.145 0.039,-0.039 0.097,-0.07 0.172,-0.093 l 1.023,-0.278 c 0.024,-0.004 0.047,-0.007 0.074,-0.011 0.024,-0.004 0.047,-0.008 0.075,-0.008 0.042,0 0.078,0.023 0.101,0.062 0.027,0.039 0.039,0.094 0.039,0.16 v 3.735 h 0.551 c 0.207,0 0.336,0.015 0.391,0.047 0.054,0.035 0.085,0.097 0.085,0.187 0,0.086 -0.023,0.149 -0.07,0.188 -0.047,0.043 -0.117,0.062 -0.207,0.062 h -2.062 c -0.094,0 -0.161,-0.019 -0.207,-0.062 -0.047,-0.039 -0.071,-0.102 -0.071,-0.188 0,-0.09 0.028,-0.152 0.082,-0.187 0.055,-0.032 0.184,-0.047 0.391,-0.047 h 0.574 v -3.371 z"/></g></g></g><g id="g882"><g id="g884"><g id="g890"><path id="path898" style="fill:url(#linearGradient896);stroke:none" d="m 760.754,328.457 c -0.035,0.004 -0.063,0.008 -0.082,0.012 -0.02,0.004 -0.035,0.004 -0.047,0.004 -0.09,0 -0.164,-0.024 -0.223,-0.075 -0.054,-0.05 -0.082,-0.117 -0.082,-0.199 0,-0.07 0.024,-0.133 0.075,-0.183 0.046,-0.051 0.117,-0.09 0.21,-0.118 l 1.282,-0.343 c 0.031,-0.008 0.062,-0.016 0.09,-0.02 0.031,-0.004 0.062,-0.008 0.097,-0.008 0.051,0 0.094,0.028 0.125,0.075 0.031,0.05 0.047,0.121 0.047,0.207 v 4.668 h 0.692 c 0.253,0 0.417,0.019 0.484,0.062 0.07,0.039 0.105,0.117 0.105,0.231 0,0.105 -0.027,0.183 -0.086,0.238 -0.054,0.051 -0.14,0.074 -0.257,0.074 h -2.579 c -0.117,0 -0.203,-0.023 -0.261,-0.074 -0.055,-0.055 -0.086,-0.133 -0.086,-0.238 0,-0.114 0.035,-0.192 0.101,-0.231 0.071,-0.043 0.235,-0.062 0.493,-0.062 h 0.714 v -4.215 z"/></g></g></g><g id="g900"><g id="g902"><g id="g908"><path id="path916" style="fill:url(#linearGradient914);stroke:none" d="m 790.051,328.457 c -0.039,0.004 -0.067,0.008 -0.086,0.012 -0.016,0.004 -0.031,0.004 -0.043,0.004 -0.094,0 -0.164,-0.024 -0.223,-0.075 -0.054,-0.05 -0.082,-0.117 -0.082,-0.203 0,-0.066 0.024,-0.129 0.074,-0.179 0.047,-0.051 0.118,-0.09 0.207,-0.118 l 1.282,-0.343 c 0.035,-0.012 0.066,-0.016 0.093,-0.02 0.032,-0.008 0.063,-0.008 0.094,-0.008 0.055,0 0.094,0.024 0.125,0.075 0.035,0.05 0.051,0.121 0.051,0.207 v 4.664 h 0.691 c 0.254,0 0.418,0.023 0.485,0.062 0.07,0.043 0.105,0.121 0.105,0.235 0,0.105 -0.027,0.183 -0.086,0.238 -0.058,0.051 -0.144,0.074 -0.258,0.074 h -2.582 c -0.113,0 -0.199,-0.023 -0.257,-0.074 -0.059,-0.055 -0.086,-0.133 -0.086,-0.238 0,-0.114 0.035,-0.192 0.101,-0.235 0.071,-0.039 0.235,-0.062 0.492,-0.062 h 0.715 v -4.211 z"/></g></g></g><g id="g918"><g id="g920"><g id="g926"><path id="path934" style="fill:url(#linearGradient932);stroke:none" d="m 785.805,283.137 c -0.266,0 -0.473,0.156 -0.621,0.468 -0.149,0.313 -0.223,0.754 -0.223,1.325 0,0.574 0.074,1.015 0.223,1.332 0.148,0.312 0.355,0.468 0.621,0.468 0.261,0 0.468,-0.156 0.617,-0.468 0.148,-0.317 0.223,-0.758 0.223,-1.332 0,-0.571 -0.075,-1.012 -0.223,-1.325 -0.149,-0.312 -0.356,-0.468 -0.617,-0.468 z m 0,4.082 c -0.438,0 -0.782,-0.203 -1.035,-0.61 -0.254,-0.41 -0.379,-0.968 -0.379,-1.679 0,-0.707 0.125,-1.266 0.379,-1.676 0.253,-0.406 0.597,-0.609 1.035,-0.609 0.429,0 0.773,0.207 1.027,0.613 0.254,0.406 0.383,0.965 0.383,1.672 0,0.707 -0.129,1.265 -0.383,1.675 -0.254,0.411 -0.598,0.614 -1.027,0.614 z"/></g></g></g><g id="g936"><g id="g938"><g id="g944"><path id="path952" style="fill:url(#linearGradient950);stroke:none" d="m 804.734,308.715 c -0.031,0.004 -0.054,0.008 -0.07,0.012 -0.016,0 -0.027,0.003 -0.039,0.003 -0.07,0 -0.125,-0.019 -0.172,-0.062 -0.047,-0.039 -0.066,-0.094 -0.066,-0.16 0,-0.055 0.019,-0.106 0.054,-0.145 0.039,-0.039 0.098,-0.07 0.172,-0.093 l 1.024,-0.278 c 0.023,-0.004 0.051,-0.012 0.074,-0.012 0.023,-0.003 0.047,-0.007 0.074,-0.007 0.043,0 0.078,0.023 0.102,0.062 0.027,0.039 0.039,0.094 0.039,0.16 v 3.735 h 0.554 c 0.204,0 0.333,0.015 0.387,0.047 0.055,0.035 0.086,0.097 0.086,0.187 0,0.086 -0.023,0.149 -0.07,0.188 -0.047,0.043 -0.113,0.062 -0.207,0.062 h -2.063 c -0.093,0 -0.16,-0.019 -0.207,-0.062 -0.047,-0.039 -0.07,-0.102 -0.07,-0.188 0,-0.09 0.027,-0.152 0.082,-0.187 0.055,-0.032 0.187,-0.047 0.391,-0.047 h 0.574 v -3.371 z"/></g></g></g><g id="g954"><g id="g956"><g id="g962"><path id="path970" style="fill:url(#linearGradient968);stroke:none" d="m 809.02,331.285 c -0.332,0 -0.59,0.195 -0.774,0.586 -0.183,0.391 -0.277,0.942 -0.277,1.656 0,0.719 0.094,1.27 0.277,1.664 0.184,0.391 0.442,0.586 0.774,0.586 0.332,0 0.589,-0.195 0.773,-0.586 0.184,-0.394 0.277,-0.945 0.277,-1.664 0,-0.714 -0.093,-1.265 -0.277,-1.656 -0.184,-0.391 -0.441,-0.586 -0.773,-0.586 z m 0,5.106 c -0.543,0 -0.973,-0.254 -1.29,-0.766 -0.32,-0.512 -0.476,-1.211 -0.476,-2.098 0,-0.882 0.156,-1.582 0.476,-2.093 0.317,-0.508 0.747,-0.766 1.29,-0.766 0.539,0 0.968,0.258 1.285,0.77 0.32,0.511 0.48,1.207 0.48,2.089 0,0.883 -0.16,1.582 -0.48,2.094 -0.317,0.512 -0.746,0.77 -1.285,0.77 z"/></g></g></g></g></g></svg>